<svg xmlns="http://www.w3.org/2000/svg" xmlns:xlink="http://www.w3.org/1999/xlink" xmlns:fi="http://pattern.flaticon.com/" x="0" y="0" width="700" height="350" viewBox="0 0 350 175"><rect x="0px" y="0px" width="100%" height="100%" opacity="1" fill="#ffffff"/><defs><path d="M0,92.375l46.188-80h92.378l46.185,80l-46.185,80H46.188L0,92.375z" transform="matrix(0.9104849100112915 0 0 0.9104849100112915 87.11344170570374 3.893795408308506)" id="L1_0" fill="#302e29"/><path d="M485.212,272.93v-60.648l-65.535-10.93c-4.564-19.69-12.321-38.083-22.72-54.756l38.647-54.078l-42.876-42.883   l-54.11,38.62c-16.675-10.366-35.063-18.155-54.759-22.745L272.934,0h-60.65l-10.931,65.509   c-19.662,4.59-38.083,12.379-54.756,22.745l-54.108-38.62L49.607,92.518l38.648,54.078c-10.396,16.645-18.155,35.066-22.717,54.756   l-65.537,10.93v60.648l65.537,10.931c4.562,19.695,12.321,38.088,22.717,54.759l-38.648,54.105l42.881,42.881l54.136-38.643   c16.646,10.393,35.066,18.154,54.729,22.714l10.931,65.535h60.65l10.926-65.535c19.663-4.56,38.084-12.321,54.759-22.714   l54.11,38.643l42.876-42.881l-38.647-54.105c10.398-16.671,18.155-35.092,22.72-54.759L485.212,272.93z M242.607,363.906   c-66.989,0-121.302-54.311-121.302-121.3c0-66.989,54.313-121.302,121.302-121.302c66.991,0,121.302,54.313,121.302,121.302   C363.909,309.595,309.599,363.906,242.607,363.906z" transform="matrix(0.18955640494823456 0 0 0.18955640494823456 201.01936094926577 213.0194022655487)" id="L1_2" fill="#ffffff"/><path d="M0,92.375l46.188-80h92.378l46.185,80l-46.185,80H46.188L0,92.375z" transform="matrix(0.8480491042137146 0 0 0.8480491042137146 257.8575358390808 168.66130296885967)" id="L1_3" fill="#ffd933"/><path d="M0,92.375l46.188-80h92.378l46.185,80l-46.185,80H46.188L0,92.375z" transform="matrix(0.7875853180885315 0 0 0.7875853180885315 72.42020416259766 206.24664521217346)" id="L1_4" fill="#ff1d23"/><g transform="matrix(0.1796237975358963 0 0 0.1796237975358963 126.01630783081055 33.01630783081055)" id="L1_8"><rect x="0px" y="160px" width="114px" height="352px" fill="#ffffff"/><path d="M426.368,164.128c-1.216-0.384-2.368-0.8-3.648-1.152c-1.536-0.352-3.072-0.64-4.64-0.896    c-6.08-1.216-12.736-2.08-20.544-2.08c-66.752,0-109.088,48.544-123.04,67.296V160H160v352h114.496V320    c0,0,86.528-120.512,123.04-32c0,79.008,0,224,0,224H512V274.464C512,221.28,475.552,176.96,426.368,164.128z" fill="#ffffff"/><circle cx="56" cy="56" r="56" fill="#ffffff"/></g></defs><g fi:class="KUsePattern"><pattern id="pattern_L1_0" width="350" height="350" patternUnits="userSpaceOnUse"><use xlink:href="#L1_0" x="-350" y="-350"/><use xlink:href="#L1_0" x="0" y="-350"/><use xlink:href="#L1_0" x="350" y="-350"/><use xlink:href="#L1_0" x="-350" y="0"/><use xlink:href="#L1_0" x="0" y="0"/><use xlink:href="#L1_0" x="350" y="0"/><use xlink:href="#L1_0" x="-350" y="350"/><use xlink:href="#L1_0" x="0" y="350"/><use xlink:href="#L1_0" x="350" y="350"/></pattern><rect x="0" y="0" width="100%" height="100%" fill="url(#pattern_L1_0)"/></g><g fi:class="KUsePattern"><pattern id="pattern_L1_2" width="350" height="350" patternUnits="userSpaceOnUse"><use xlink:href="#L1_2" x="-350" y="-350"/><use xlink:href="#L1_2" x="0" y="-350"/><use xlink:href="#L1_2" x="350" y="-350"/><use xlink:href="#L1_2" x="-350" y="0"/><use xlink:href="#L1_2" x="0" y="0"/><use xlink:href="#L1_2" x="350" y="0"/><use xlink:href="#L1_2" x="-350" y="350"/><use xlink:href="#L1_2" x="0" y="350"/><use xlink:href="#L1_2" x="350" y="350"/></pattern><rect x="0" y="0" width="100%" height="100%" fill="url(#pattern_L1_2)"/></g><g fi:class="KUsePattern"><pattern id="pattern_L1_3" width="350" height="350" patternUnits="userSpaceOnUse"><use xlink:href="#L1_3" x="-350" y="-350"/><use xlink:href="#L1_3" x="0" y="-350"/><use xlink:href="#L1_3" x="350" y="-350"/><use xlink:href="#L1_3" x="-350" y="0"/><use xlink:href="#L1_3" x="0" y="0"/><use xlink:href="#L1_3" x="350" y="0"/><use xlink:href="#L1_3" x="-350" y="350"/><use xlink:href="#L1_3" x="0" y="350"/><use xlink:href="#L1_3" x="350" y="350"/></pattern><rect x="0" y="0" width="100%" height="100%" fill="url(#pattern_L1_3)"/></g><g fi:class="KUsePattern"><pattern id="pattern_L1_4" width="350" height="350" patternUnits="userSpaceOnUse"><use xlink:href="#L1_4" x="-350" y="-350"/><use xlink:href="#L1_4" x="0" y="-350"/><use xlink:href="#L1_4" x="350" y="-350"/><use xlink:href="#L1_4" x="-350" y="0"/><use xlink:href="#L1_4" x="0" y="0"/><use xlink:href="#L1_4" x="350" y="0"/><use xlink:href="#L1_4" x="-350" y="350"/><use xlink:href="#L1_4" x="0" y="350"/><use xlink:href="#L1_4" x="350" y="350"/></pattern><rect x="0" y="0" width="100%" height="100%" fill="url(#pattern_L1_4)"/></g><g fi:class="KUsePattern"><pattern id="pattern_L1_8" width="350" height="350" patternUnits="userSpaceOnUse"><use xlink:href="#L1_8" x="-350" y="-350"/><use xlink:href="#L1_8" x="0" y="-350"/><use xlink:href="#L1_8" x="350" y="-350"/><use xlink:href="#L1_8" x="-350" y="0"/><use xlink:href="#L1_8" x="0" y="0"/><use xlink:href="#L1_8" x="350" y="0"/><use xlink:href="#L1_8" x="-350" y="350"/><use xlink:href="#L1_8" x="0" y="350"/><use xlink:href="#L1_8" x="350" y="350"/></pattern><rect x="0" y="0" width="100%" height="100%" fill="url(#pattern_L1_8)"/></g></svg>